# xmcd
#
# Track frame offsets:
# 150
# 19760
# 40066
# 61091
# 80609
# 98734
# 108509
# 128742
# 131292
# 151198
# 168635
# 188970
# 201292
# 217368
# 227186
#
# Disc length: 3270 seconds
#
#
# Revision: 1
# Processed by: cddbd v1.5.1PL2 Copyright (c) Steve Scherf et al.
# Submitted via: FreeRIP 2.945 
#
DISCID=cd0cc40f
DTITLE=Anis - La chance...
DYEAR=2005
DGENRE=Blues
TTITLE0=Avec le vent
TTITLE1=Bistro
TTITLE2=Mon métro
TTITLE3=Cergy
TTITLE4=Intégration
TTITLE5=J'aurais voulu être un MC
TTITLE6=Peut-être bien
TTITLE7=Pensées amères - Intro
TTITLE8=Pensées amères
TTITLE9=Louise et Thelma
TTITLE10=Oisif
TTITLE11=La preuve par 1000 (mahlich boy)
TTITLE12=Le sommeil
TTITLE13=Nobody knows you
TTITLE14=Reggablues
EXTD=YEAR: 2005
EXTT0=
EXTT1=
EXTT2=
EXTT3=
EXTT4=
EXTT5=
EXTT6=
EXTT7=
EXTT8=
EXTT9=
EXTT10=
EXTT11=
EXTT12=
EXTT13=
EXTT14=
PLAYORDER=
